<?xml version="1.0" encoding="UTF-8"?>
<!-- Generator: visioncortex VTracer -->
<svg id="svg" version="1.1" xmlns="http://www.w3.org/2000/svg" style="display: block;" viewBox="0 0 200 200"><path d="M0 0 C66 0 132 0 200 0 C200 66 200 132 200 200 C134 200 68 200 0 200 C0 134 0 68 0 0 Z " transform="translate(0,0)" style="fill: #FEFEFE;"/><path d="M0 0 C1.65 0 3.3 0 5 0 C10.42178049 9.97339868 15.53869974 20.05469686 20.39501953 30.31542969 C23.3113528 36.47538821 26.26592102 42.61476654 29.2578125 48.73828125 C29.62376022 49.48830414 29.98970795 50.23832703 30.366745 51.01107788 C32.57504452 55.53708853 32.57504452 55.53708853 34.79055786 60.05957031 C35.8260701 62.16955355 36.85682037 64.28180354 37.88671875 66.39453125 C38.20178375 67.0330452 38.51684875 67.67155914 38.84146118 68.329422 C41 72.7726678 41 72.7726678 41 75 C41.75925781 74.71125 42.51851563 74.4225 43.30078125 74.125 C44.29464844 73.75375 45.28851563 73.3825 46.3125 73 C47.29863281 72.62875 48.28476563 72.2575 49.30078125 71.875 C52 71 52 71 55 71 C57.95226131 77.14070352 57.95226131 77.14070352 58.125 80.25 C56.1956278 83.25124564 53.26292889 83.87485211 50 85 C49.01 85 48.02 85 47 85 C47.32274902 85.66531738 47.64549805 86.33063477 47.97802734 87.01611328 C49.44745273 90.05060088 50.91127042 93.08776112 52.375 96.125 C52.88289063 97.17171875 53.39078125 98.2184375 53.9140625 99.296875 C54.40390625 100.31523437 54.89375 101.33359375 55.3984375 102.3828125 C55.84880371 103.31496582 56.29916992 104.24711914 56.76318359 105.20751953 C58.04069054 108.09187098 59.04960273 110.99364128 60 114 C53.64058012 118.03578569 53.64058012 118.03578569 51.06835938 117.89208984 C47.95585555 116.54965725 47.40095627 114.53060506 45.984375 111.50390625 C45.45585937 110.38822266 44.92734375 109.27253906 44.3828125 108.12304688 C43.84398437 106.94806641 43.30515625 105.77308594 42.75 104.5625 C42.19570312 103.39138672 41.64140625 102.22027344 41.0703125 101.01367188 C37 92.32666256 37 92.32666256 37 90 C30.61721896 92.42073049 24.23499604 94.84292863 17.85308838 97.26596069 C15.58102631 98.12842345 13.30885067 98.99058706 11.03656006 99.85244751 C-0.94502902 104.39726562 -12.92109652 108.9540381 -24.86328125 113.6015625 C-25.76818802 113.95296799 -26.67309479 114.30437347 -27.60542297 114.66642761 C-31.84497655 116.31283992 -36.08195549 117.96530358 -40.31469727 119.62915039 C-41.82165806 120.21531327 -43.32873129 120.80118721 -44.8359375 121.38671875 C-45.84658012 121.78843796 -45.84658012 121.78843796 -46.87763977 122.19827271 C-50.19657458 123.47933875 -52.3732655 124 -56 124 C-55.56173931 117.27689459 -52.90748333 112.03923398 -49.9375 106.0625 C-49.22883789 104.6074707 -49.22883789 104.6074707 -48.50585938 103.12304688 C-47.34579854 100.74433627 -46.17704645 98.37033901 -45 96 C-47.97652483 95.81022182 -47.97652483 95.81022182 -50.4375 97 C-53 98 -53 98 -57 98 C-57.99 94.7 -58.98 91.4 -60 88 C-57.10610633 86.84905371 -54.21007685 85.70410507 -51.3125 84.5625 C-50.49587891 84.23701172 -49.67925781 83.91152344 -48.83789062 83.57617188 C-44.91754337 82.03660231 -41.19459951 80.60655105 -37 80 C-36.58488159 78.68539795 -36.58488159 78.68539795 -36.16137695 77.34423828 C-35.08875415 74.25557165 -33.85481983 71.42538448 -32.41796875 68.4921875 C-31.90459961 67.43708984 -31.39123047 66.38199219 -30.86230469 65.29492188 C-30.30961914 64.16634766 -29.75693359 63.03777344 -29.1875 61.875 C-28.00746191 59.44609377 -26.82858488 57.01667943 -25.65234375 54.5859375 C-25.35051178 53.96245422 -25.04867981 53.33897095 -24.73770142 52.69659424 C-21.50272287 45.99775679 -18.37101184 39.25261677 -15.25 32.5 C-10.22812719 21.6368803 -5.14893316 10.80344631 0 0 Z " transform="translate(100,38)" style="fill: #7C5FCE;"/><path d="M0 0 C3.31375423 2.20916949 3.88609863 3.35137015 5.5234375 6.875 C5.9875 7.86113281 6.4515625 8.84726563 6.9296875 9.86328125 C7.40664062 10.89839844 7.88359375 11.93351562 8.375 13 C9.31945375 15.02123482 10.26476011 17.04207148 11.2109375 19.0625 C11.67081055 20.05121094 12.13068359 21.03992188 12.60449219 22.05859375 C14.36025841 25.75934104 16.21775608 29.40334739 18.10400391 33.0390625 C19 35 19 35 19 37 C13.20114539 39.16423299 7.39874244 41.31854869 1.59277344 43.46362305 C-0.38317808 44.19525827 -2.35811943 44.92962757 -4.33203125 45.66674805 C-7.16407413 46.72378815 -9.99956522 47.77104833 -12.8359375 48.81640625 C-13.72243988 49.14967422 -14.60894226 49.4829422 -15.52230835 49.8263092 C-16.753358 50.27688942 -16.753358 50.27688942 -18.00927734 50.73657227 C-19.0951564 51.13961327 -19.0951564 51.13961327 -20.20297241 51.55079651 C-22 52 -22 52 -24 51 C-23.52167725 49.98800537 -23.04335449 48.97601074 -22.55053711 47.93334961 C-20.74043845 44.10344417 -18.93082289 40.27331063 -17.12133789 36.44311523 C-16.34477268 34.7995003 -15.56808419 33.15594361 -14.79125977 31.51245117 C-9.83259432 21.02136391 -4.89552338 10.52071052 0 0 Z " transform="translate(102,60)" style="fill: #FCFCFE;"/><path d="M0 0 C1.265625 1.77734375 1.265625 1.77734375 2.25 3.9375 C2.75273437 5.00291016 2.75273437 5.00291016 3.265625 6.08984375 C4 8 4 8 4 10 C2.87843506 10.43755615 1.75687012 10.8751123 0.60131836 11.32592773 C-1.84332205 12.27966016 -4.28793711 13.2334574 -6.73249817 14.18739319 C-11.39634804 16.00733836 -16.06046236 17.82660002 -20.72509766 19.64453125 C-28.73646771 22.76774425 -36.74722331 25.8915188 -44.73828125 29.06640625 C-45.80232178 29.48801025 -46.8663623 29.90961426 -47.96264648 30.34399414 C-49.85577864 31.09543858 -51.74731668 31.85091604 -53.63696289 32.61108398 C-54.86467407 33.09750366 -54.86467407 33.09750366 -56.1171875 33.59375 C-56.80409668 33.86896484 -57.49100586 34.14417969 -58.19873047 34.42773438 C-60 35 -60 35 -63 35 C-62.59179373 33.6640522 -62.17280893 32.33139832 -61.75 31 C-61.51796875 30.2575 -61.2859375 29.515 -61.046875 28.75 C-60.70140625 27.8425 -60.3559375 26.935 -60 26 C-59.81238098 25.39156754 -59.62476196 24.78313507 -59.43145752 24.15626526 C-58.10151171 20.67336364 -56.87679337 18.5417959 -53.65545654 16.55123901 C-50.59935292 15.22946345 -47.52577751 14.10433162 -44.375 13.02734375 C-43.23595215 12.6145668 -42.0969043 12.20178986 -40.92333984 11.77650452 C-38.52079779 10.91203662 -36.11322791 10.06143218 -33.70117188 9.22387695 C-30.00261954 7.93841045 -26.32134672 6.61095416 -22.640625 5.27539062 C-20.30297233 4.44021585 -17.9644575 3.60744948 -15.625 2.77734375 C-14.52075684 2.38167709 -13.41651367 1.98601044 -12.27880859 1.57835388 C-11.25094238 1.2237056 -10.22307617 0.86905731 -9.1640625 0.50366211 C-8.26123535 0.18803818 -7.3584082 -0.12758575 -6.42822266 -0.45277405 C-3.82253453 -1.03999374 -2.46286288 -0.98868419 0 0 Z " transform="translate(127,108)" style="fill: #FCFBFD;"/></svg>